<svg width="50" height="50" viewBox="0 0 50 50" fill="none" xmlns="http://www.w3.org/2000/svg">
  <rect width="50" height="50" rx="8" fill="#003366"/>
  <path d="M35 15H15C14.0572 15 13.1546 15.3718 12.4874 16.0343C11.8201 16.6967 11.4453 17.5932 11.4453 18.5294V31.4706C11.4453 32.4068 11.8201 33.3033 12.4874 33.9657C13.1546 34.6282 14.0572 35 15 35H35C35.9428 35 36.8454 34.6282 37.5126 33.9657C38.1799 33.3033 38.5547 32.4068 38.5547 31.4706V18.5294C38.5547 17.5932 38.1799 16.6967 37.5126 16.0343C36.8454 15.3718 35.9428 15 35 15ZM15 17.6471H35C35.3143 17.6471 35.6155 17.7748 35.8374 18.0011C36.0594 18.2275 36.1847 18.5339 36.1847 18.8529V20.1176H13.8153V18.8529C13.8153 18.5339 13.9406 18.2275 14.1626 18.0011C14.3845 17.7748 14.6857 17.6471 15 17.6471ZM35 32.3529H15C14.6857 32.3529 14.3845 32.2252 14.1626 31.9989C13.9406 31.7725 13.8153 31.4661 13.8153 31.1471V22.7647H36.1847V31.1471C36.1847 31.4661 36.0594 31.7725 35.8374 31.9989C35.6155 32.2252 35.3143 32.3529 35 32.3529Z" fill="white"/>
  <rect x="17" y="25" width="16" height="3" rx="1.5" fill="#FFC107"/>
  <rect x="17" y="29" width="10" height="3" rx="1.5" fill="#FFC107"/>
</svg>